<?xml version="1.0" encoding="UTF-8" standalone="no"?>
<!-- Generator: Adobe Illustrator 15.1.0, SVG Export Plug-In . SVG Version: 6.00 Build 0)  -->

<svg
   xmlns:dc="http://purl.org/dc/elements/1.1/"
   xmlns:cc="http://creativecommons.org/ns#"
   xmlns:rdf="http://www.w3.org/1999/02/22-rdf-syntax-ns#"
   xmlns:svg="http://www.w3.org/2000/svg"
   xmlns="http://www.w3.org/2000/svg"
   xmlns:sodipodi="http://sodipodi.sourceforge.net/DTD/sodipodi-0.dtd"
   xmlns:inkscape="http://www.inkscape.org/namespaces/inkscape"
   version="1.1"
   id="Layer_1"
   x="0px"
   y="0px"
   width="398px"
   height="382px"
   viewBox="0 0 398 382"
   enable-background="new 0 0 398 382"
   xml:space="preserve"
   sodipodi:docname="merge.svg"
   inkscape:export-filename="C:\Users\lucia\Trabajo\R\Code\IntroRUNTDF_presentation\img\merge.png"
   inkscape:export-xdpi="96"
   inkscape:export-ydpi="96"
   inkscape:version="0.92.3 (2405546, 2018-03-11)"><metadata
   id="metadata65"><rdf:RDF><cc:Work
       rdf:about=""><dc:format>image/svg+xml</dc:format><dc:type
         rdf:resource="http://purl.org/dc/dcmitype/StillImage" /></cc:Work></rdf:RDF></metadata><defs
   id="defs63" /><sodipodi:namedview
   pagecolor="#ffffff"
   bordercolor="#666666"
   borderopacity="1"
   objecttolerance="10"
   gridtolerance="10"
   guidetolerance="10"
   inkscape:pageopacity="0"
   inkscape:pageshadow="2"
   inkscape:window-width="1366"
   inkscape:window-height="705"
   id="namedview61"
   showgrid="false"
   inkscape:zoom="0.61780105"
   inkscape:cx="-99.639831"
   inkscape:cy="191"
   inkscape:window-x="-8"
   inkscape:window-y="-8"
   inkscape:window-maximized="1"
   inkscape:current-layer="Layer_1" />
<g
   id="g28">
	<rect
   x="266"
   y="129"
   fill="#DCDEE0"
   width="100"
   height="127"
   id="rect2" />
	<rect
   x="266"
   y="129"
   fill="none"
   stroke="#85888D"
   stroke-width="2"
   width="100"
   height="127"
   id="rect4" />
	<line
   fill="none"
   stroke="#000000"
   stroke-width="2"
   x1="279"
   y1="149"
   x2="353"
   y2="149"
   id="line6" />
	<line
   fill="none"
   stroke="#000000"
   stroke-width="2"
   x1="279"
   y1="155"
   x2="353"
   y2="155"
   id="line8" />
	<line
   fill="none"
   stroke="#000000"
   stroke-width="2"
   x1="279"
   y1="160"
   x2="353"
   y2="160"
   id="line10" />
	<line
   fill="none"
   stroke="#70BF41"
   stroke-width="2"
   x1="279"
   y1="172"
   x2="353"
   y2="172"
   id="line12" />
	<rect
   x="32"
   y="41"
   fill="#DCDEE0"
   width="100"
   height="128"
   id="rect14" />
	<rect
   x="32"
   y="41"
   fill="none"
   stroke="#85888D"
   stroke-width="2"
   width="100"
   height="128"
   id="rect16" />
	<line
   fill="none"
   stroke="#000000"
   stroke-width="2"
   x1="45"
   y1="61"
   x2="119"
   y2="61"
   id="line18" />
	<line
   fill="none"
   stroke="#000000"
   stroke-width="2"
   x1="45"
   y1="67"
   x2="119"
   y2="67"
   id="line20" />
	<line
   fill="none"
   stroke="#000000"
   stroke-width="2"
   x1="45"
   y1="73"
   x2="119"
   y2="73"
   id="line22" />
	<line
   fill="none"
   stroke="#70BF41"
   stroke-width="2"
   x1="45"
   y1="85"
   x2="119"
   y2="85"
   id="line24" />
	<line
   fill="none"
   stroke="#70BF41"
   stroke-width="2"
   x1="162"
   y1="155"
   x2="236"
   y2="155"
   id="line26" />
</g>
<g
   id="g42">
	<rect
   x="32"
   y="221"
   fill="#DCDEE0"
   width="100"
   height="128"
   id="rect30" />
	<rect
   x="32"
   y="221"
   fill="none"
   stroke="#85888D"
   stroke-width="2"
   width="100"
   height="128"
   id="rect32" />
	<line
   fill="none"
   stroke="#000000"
   stroke-width="2"
   x1="45"
   y1="241"
   x2="119"
   y2="241"
   id="line34" />
	<line
   fill="none"
   stroke="#000000"
   stroke-width="2"
   x1="45"
   y1="247"
   x2="119"
   y2="247"
   id="line36" />
	<line
   fill="none"
   stroke="#000000"
   stroke-width="2"
   x1="45"
   y1="253"
   x2="119"
   y2="253"
   id="line38" />
	<line
   fill="none"
   stroke="#C82506"
   stroke-width="2"
   x1="45"
   y1="265"
   x2="119"
   y2="265"
   id="line40" />
</g>
<polygon
   fill="#45BEEE"
   points="205.711,272.768 210.008,286.822 239.666,246.316 192.428,229.32 196.725,243.375 155.825,255.879   164.812,285.271 "
   id="polygon44" />
<polygon
   fill="#45BEEE"
   points="197.488,131.384 193.191,145.438 240.43,128.443 210.771,87.937 206.475,101.992 165.574,89.487   156.588,118.88 "
   id="polygon46" />
<g
   id="g58">
	<line
   fill="none"
   stroke="#C82506"
   stroke-width="2"
   x1="45"
   y1="271"
   x2="119"
   y2="271"
   id="line48" />
	<line
   fill="none"
   stroke="#C82506"
   stroke-width="2"
   x1="162"
   y1="208"
   x2="236"
   y2="208"
   id="line50" />
	<line
   fill="none"
   stroke="#C82506"
   stroke-width="2"
   x1="162"
   y1="214"
   x2="236"
   y2="214"
   id="line52" />
	<line
   fill="none"
   stroke="#C82506"
   stroke-width="2"
   x1="279"
   y1="179"
   x2="353"
   y2="179"
   id="line54" />
	<line
   fill="none"
   stroke="#C82506"
   stroke-width="2"
   x1="279"
   y1="185"
   x2="353"
   y2="185"
   id="line56" />
</g>
</svg>